<?xml version="1.0" encoding="UTF-8" standalone="no"?>
<!DOCTYPE svg PUBLIC "-//W3C//DTD SVG 1.1//EN"
 "http://www.w3.org/Graphics/SVG/1.1/DTD/svg11.dtd">
<!-- Generated by graphviz version 2.40.1 (20161225.0304)
 -->
<!-- Title: ___go_build_pprof_1_go Pages: 1 -->
<svg width="100%" height="100%" xmlns="http://www.w3.org/2000/svg" xmlns:xlink="http://www.w3.org/1999/xlink">
<script type="text/ecmascript"><![CDATA[
/**
 *  SVGPan library 1.2.2
 * ======================
 *
 * Given an unique existing element with id "viewport" (or when missing, the
 * first g-element), including the library into any SVG adds the following
 * capabilities:
 *
 *  - Mouse panning
 *  - Mouse zooming (using the wheel)
 *  - Object dragging
 *
 * You can configure the behaviour of the pan/zoom/drag with the variables
 * listed in the CONFIGURATION section of this file.
 *
 * Known issues:
 *
 *  - Zooming (while panning) on Safari has still some issues
 *
 * Releases:
 *
 * 1.2.2, Tue Aug 30 17:21:56 CEST 2011, Andrea Leofreddi
 *	- Fixed viewBox on root tag (#7)
 *	- Improved zoom speed (#2)
 *
 * 1.2.1, Mon Jul  4 00:33:18 CEST 2011, Andrea Leofreddi
 *	- Fixed a regression with mouse wheel (now working on Firefox 5)
 *	- Working with viewBox attribute (#4)
 *	- Added "use strict;" and fixed resulting warnings (#5)
 *	- Added configuration variables, dragging is disabled by default (#3)
 *
 * 1.2, Sat Mar 20 08:42:50 GMT 2010, Zeng Xiaohui
 *	Fixed a bug with browser mouse handler interaction
 *
 * 1.1, Wed Feb  3 17:39:33 GMT 2010, Zeng Xiaohui
 *	Updated the zoom code to support the mouse wheel on Safari/Chrome
 *
 * 1.0, Andrea Leofreddi
 *	First release
 *
 * This code is licensed under the following BSD license:
 *
 * Copyright 2009-2017 Andrea Leofreddi <a.leofreddi@vleo.net>. All rights reserved.
 *
 * Redistribution and use in source and binary forms, with or without modification, are
 * permitted provided that the following conditions are met:
 *
 *    1. Redistributions of source code must retain the above copyright
 *       notice, this list of conditions and the following disclaimer.
 *    2. Redistributions in binary form must reproduce the above copyright
 *       notice, this list of conditions and the following disclaimer in the
 *       documentation and/or other materials provided with the distribution.
 *    3. Neither the name of the copyright holder nor the names of its
 *       contributors may be used to endorse or promote products derived from
 *       this software without specific prior written permission.
 *
 * THIS SOFTWARE IS PROVIDED BY COPYRIGHT HOLDERS AND CONTRIBUTORS ''AS IS'' AND ANY EXPRESS
 * OR IMPLIED WARRANTIES, INCLUDING, BUT NOT LIMITED TO, THE IMPLIED WARRANTIES OF MERCHANTABILITY
 * AND FITNESS FOR A PARTICULAR PURPOSE ARE DISCLAIMED. IN NO EVENT SHALL COPYRIGHT HOLDERS OR
 * CONTRIBUTORS BE LIABLE FOR ANY DIRECT, INDIRECT, INCIDENTAL, SPECIAL, EXEMPLARY, OR
 * CONSEQUENTIAL DAMAGES (INCLUDING, BUT NOT LIMITED TO, PROCUREMENT OF SUBSTITUTE GOODS OR
 * SERVICES; LOSS OF USE, DATA, OR PROFITS; OR BUSINESS INTERRUPTION) HOWEVER CAUSED AND ON
 * ANY THEORY OF LIABILITY, WHETHER IN CONTRACT, STRICT LIABILITY, OR TORT (INCLUDING
 * NEGLIGENCE OR OTHERWISE) ARISING IN ANY WAY OUT OF THE USE OF THIS SOFTWARE, EVEN IF
 * ADVISED OF THE POSSIBILITY OF SUCH DAMAGE.
 *
 * The views and conclusions contained in the software and documentation are those of the
 * authors and should not be interpreted as representing official policies, either expressed
 * or implied, of Andrea Leofreddi.
 */

"use strict";

/// CONFIGURATION
/// ====>

var enablePan = 1; // 1 or 0: enable or disable panning (default enabled)
var enableZoom = 1; // 1 or 0: enable or disable zooming (default enabled)
var enableDrag = 0; // 1 or 0: enable or disable dragging (default disabled)
var zoomScale = 0.2; // Zoom sensitivity

/// <====
/// END OF CONFIGURATION

var root = document.documentElement;

var state = 'none', svgRoot = null, stateTarget, stateOrigin, stateTf;

setupHandlers(root);

/**
 * Register handlers
 */
function setupHandlers(root){
	setAttributes(root, {
		"onmouseup" : "handleMouseUp(evt)",
		"onmousedown" : "handleMouseDown(evt)",
		"onmousemove" : "handleMouseMove(evt)",
		//"onmouseout" : "handleMouseUp(evt)", // Decomment this to stop the pan functionality when dragging out of the SVG element
	});

	if(navigator.userAgent.toLowerCase().indexOf('webkit') >= 0)
		window.addEventListener('mousewheel', handleMouseWheel, false); // Chrome/Safari
	else
		window.addEventListener('DOMMouseScroll', handleMouseWheel, false); // Others
}

/**
 * Retrieves the root element for SVG manipulation. The element is then cached into the svgRoot global variable.
 */
function getRoot(root) {
	if(svgRoot == null) {
		var r = root.getElementById("viewport") ? root.getElementById("viewport") : root.documentElement, t = r;

		while(t != root) {
			if(t.getAttribute("viewBox")) {
				setCTM(r, t.getCTM());

				t.removeAttribute("viewBox");
			}

			t = t.parentNode;
		}

		svgRoot = r;
	}

	return svgRoot;
}

/**
 * Instance an SVGPoint object with given event coordinates.
 */
function getEventPoint(evt) {
	var p = root.createSVGPoint();

	p.x = evt.clientX;
	p.y = evt.clientY;

	return p;
}

/**
 * Sets the current transform matrix of an element.
 */
function setCTM(element, matrix) {
	var s = "matrix(" + matrix.a + "," + matrix.b + "," + matrix.c + "," + matrix.d + "," + matrix.e + "," + matrix.f + ")";

	element.setAttribute("transform", s);
}

/**
 * Dumps a matrix to a string (useful for debug).
 */
function dumpMatrix(matrix) {
	var s = "[ " + matrix.a + ", " + matrix.c + ", " + matrix.e + "\n  " + matrix.b + ", " + matrix.d + ", " + matrix.f + "\n  0, 0, 1 ]";

	return s;
}

/**
 * Sets attributes of an element.
 */
function setAttributes(element, attributes){
	for (var i in attributes)
		element.setAttributeNS(null, i, attributes[i]);
}

/**
 * Handle mouse wheel event.
 */
function handleMouseWheel(evt) {
	if(!enableZoom)
		return;

	if(evt.preventDefault)
		evt.preventDefault();

	evt.returnValue = false;

	var svgDoc = evt.target.ownerDocument;

	var delta;

	if(evt.wheelDelta)
		delta = evt.wheelDelta / 360; // Chrome/Safari
	else
		delta = evt.detail / -9; // Mozilla

	var z = Math.pow(1 + zoomScale, delta);

	var g = getRoot(svgDoc);
	
	var p = getEventPoint(evt);

	p = p.matrixTransform(g.getCTM().inverse());

	// Compute new scale matrix in current mouse position
	var k = root.createSVGMatrix().translate(p.x, p.y).scale(z).translate(-p.x, -p.y);

        setCTM(g, g.getCTM().multiply(k));

	if(typeof(stateTf) == "undefined")
		stateTf = g.getCTM().inverse();

	stateTf = stateTf.multiply(k.inverse());
}

/**
 * Handle mouse move event.
 */
function handleMouseMove(evt) {
	if(evt.preventDefault)
		evt.preventDefault();

	evt.returnValue = false;

	var svgDoc = evt.target.ownerDocument;

	var g = getRoot(svgDoc);

	if(state == 'pan' && enablePan) {
		// Pan mode
		var p = getEventPoint(evt).matrixTransform(stateTf);

		setCTM(g, stateTf.inverse().translate(p.x - stateOrigin.x, p.y - stateOrigin.y));
	} else if(state == 'drag' && enableDrag) {
		// Drag mode
		var p = getEventPoint(evt).matrixTransform(g.getCTM().inverse());

		setCTM(stateTarget, root.createSVGMatrix().translate(p.x - stateOrigin.x, p.y - stateOrigin.y).multiply(g.getCTM().inverse()).multiply(stateTarget.getCTM()));

		stateOrigin = p;
	}
}

/**
 * Handle click event.
 */
function handleMouseDown(evt) {
	if(evt.preventDefault)
		evt.preventDefault();

	evt.returnValue = false;

	var svgDoc = evt.target.ownerDocument;

	var g = getRoot(svgDoc);

	if(
		evt.target.tagName == "svg"
		|| !enableDrag // Pan anyway when drag is disabled and the user clicked on an element
	) {
		// Pan mode
		state = 'pan';

		stateTf = g.getCTM().inverse();

		stateOrigin = getEventPoint(evt).matrixTransform(stateTf);
	} else {
		// Drag mode
		state = 'drag';

		stateTarget = evt.target;

		stateTf = g.getCTM().inverse();

		stateOrigin = getEventPoint(evt).matrixTransform(stateTf);
	}
}

/**
 * Handle mouse button release event.
 */
function handleMouseUp(evt) {
	if(evt.preventDefault)
		evt.preventDefault();

	evt.returnValue = false;

	var svgDoc = evt.target.ownerDocument;

	if(state == 'pan' || state == 'drag') {
		// Quit pan mode
		state = '';
	}
}
]]></script><g id="viewport" transform="scale(0.5,0.5) translate(0,0)"><g id="graph0" class="graph" transform="scale(1 1) rotate(0) translate(4 1594)">
<title>___go_build_pprof_1_go</title>
<polygon fill="#ffffff" stroke="transparent" points="-4,4 -4,-1594 865,-1594 865,4 -4,4"/>
<g id="clust1" class="cluster">
<title>cluster_L</title>
<polygon fill="none" stroke="#000000" points="8,-1468 8,-1582 484,-1582 484,-1468 8,-1468"/>
</g>
<!-- File: ___go_build_pprof_1_go -->
<g id="node1" class="node">
<title>File: ___go_build_pprof_1_go</title>
<g id="a_node1"><a xlink:title="___go_build_pprof_1_go">
<polygon fill="#f8f8f8" stroke="#000000" points="475.5,-1574 16.5,-1574 16.5,-1476 475.5,-1476 475.5,-1574"/>
<text text-anchor="start" x="24.5" y="-1557.2" font-family="Times,serif" font-size="16.00" fill="#000000">File: ___go_build_pprof_1_go</text>
<text text-anchor="start" x="24.5" y="-1539.2" font-family="Times,serif" font-size="16.00" fill="#000000">Type: alloc_objects</text>
<text text-anchor="start" x="24.5" y="-1521.2" font-family="Times,serif" font-size="16.00" fill="#000000">Time: Jun 6, 2019 at 4:25pm (MSK)</text>
<text text-anchor="start" x="24.5" y="-1503.2" font-family="Times,serif" font-size="16.00" fill="#000000">Showing nodes accounting for 25371797, 98.93% of 25646612 total</text>
<text text-anchor="start" x="24.5" y="-1485.2" font-family="Times,serif" font-size="16.00" fill="#000000">Dropped 67 nodes (cum &lt;= 128233)</text>
</a>
</g>
</g>
<!-- N1 -->
<g id="node1" class="node">
<title>N1</title>
<g id="a_node1"><a xlink:title="net/http.(*conn).serve (25626204)">
<polygon fill="#edd5d5" stroke="#b20000" points="588,-1547 494,-1547 494,-1503 588,-1503 588,-1547"/>
<text text-anchor="middle" x="541" y="-1536.6" font-family="Times,serif" font-size="8.00" fill="#000000">http</text>
<text text-anchor="middle" x="541" y="-1527.6" font-family="Times,serif" font-size="8.00" fill="#000000">(*conn)</text>
<text text-anchor="middle" x="541" y="-1518.6" font-family="Times,serif" font-size="8.00" fill="#000000">serve</text>
<text text-anchor="middle" x="541" y="-1509.6" font-family="Times,serif" font-size="8.00" fill="#000000">0 of 25626204 (99.92%)</text>
</a>
</g>
</g>
<!-- N12 -->
<g id="node12" class="node">
<title>N12</title>
<g id="a_node12"><a xlink:title="net/http.serverHandler.ServeHTTP (25599836)">
<polygon fill="#edd5d5" stroke="#b20000" points="588,-1425 494,-1425 494,-1381 588,-1381 588,-1425"/>
<text text-anchor="middle" x="541" y="-1414.6" font-family="Times,serif" font-size="8.00" fill="#000000">http</text>
<text text-anchor="middle" x="541" y="-1405.6" font-family="Times,serif" font-size="8.00" fill="#000000">serverHandler</text>
<text text-anchor="middle" x="541" y="-1396.6" font-family="Times,serif" font-size="8.00" fill="#000000">ServeHTTP</text>
<text text-anchor="middle" x="541" y="-1387.6" font-family="Times,serif" font-size="8.00" fill="#000000">0 of 25599836 (99.82%)</text>
</a>
</g>
</g>
<!-- N1&#45;&gt;N12 -->
<g id="edge11" class="edge">
<title>N1&#45;&gt;N12</title>
<g id="a_edge11"><a xlink:title="net/http.(*conn).serve &#45;&gt; net/http.serverHandler.ServeHTTP (25599836)">
<path fill="none" stroke="#b20000" stroke-width="5" d="M541,-1502.9067C541,-1484.1094 541,-1456.8524 541,-1435.5556"/>
<polygon fill="#b20000" stroke="#b20000" stroke-width="5" points="545.3751,-1435.3411 541,-1425.3412 536.6251,-1435.3412 545.3751,-1435.3411"/>
</a>
</g>
<g id="a_edge11&#45;label"><a xlink:title="net/http.(*conn).serve &#45;&gt; net/http.serverHandler.ServeHTTP (25599836)">
<text text-anchor="middle" x="570" y="-1446.8" font-family="Times,serif" font-size="14.00" fill="#000000"> 25599836</text>
</a>
</g>
</g>
<!-- N2 -->
<g id="node2" class="node">
<title>N2</title>
<g id="a_node2"><a xlink:title="main.handle (25599832)">
<polygon fill="#edd5d5" stroke="#b20000" points="636.5,-1140 445.5,-1140 445.5,-1048 636.5,-1048 636.5,-1140"/>
<text text-anchor="middle" x="541" y="-1120.8" font-family="Times,serif" font-size="19.00" fill="#000000">main</text>
<text text-anchor="middle" x="541" y="-1099.8" font-family="Times,serif" font-size="19.00" fill="#000000">handle</text>
<text text-anchor="middle" x="541" y="-1078.8" font-family="Times,serif" font-size="19.00" fill="#000000">4532267 (17.67%)</text>
<text text-anchor="middle" x="541" y="-1057.8" font-family="Times,serif" font-size="19.00" fill="#000000">of 25599832 (99.82%)</text>
</a>
</g>
</g>
<!-- NN2_0 -->
<g id="NN2_0" class="node">
<title>NN2_0</title>
<g id="a_NN2_0"><a xlink:title="2333259">
<polygon fill="#f8f8f8" stroke="#000000" points="423,-997 373,-997 369,-993 369,-961 419,-961 423,-965 423,-997"/>
<polyline fill="none" stroke="#000000" points="419,-993 369,-993 "/>
<polyline fill="none" stroke="#000000" points="419,-993 419,-961 "/>
<polyline fill="none" stroke="#000000" points="419,-993 423,-997 "/>
<text text-anchor="middle" x="396" y="-977.1" font-family="Times,serif" font-size="8.00" fill="#000000">16B..128B</text>
</a>
</g>
</g>
<!-- N2&#45;&gt;NN2_0 -->
<g id="edge1" class="edge">
<title>N2&#45;&gt;NN2_0</title>
<g id="a_edge1"><a xlink:title="2333259">
<path fill="none" stroke="#000000" d="M451.0936,-1047.9549C443.2558,-1042.387 435.7506,-1036.3881 429,-1030 421.6871,-1023.0797 415.2391,-1014.2282 410.028,-1005.8483"/>
<polygon fill="#000000" stroke="#000000" points="412.9509,-1003.9135 404.8764,-997.054 406.9109,-1007.4517 412.9509,-1003.9135"/>
</a>
</g>
<g id="a_edge1&#45;label"><a xlink:title="2333259">
<text text-anchor="middle" x="455" y="-1018.8" font-family="Times,serif" font-size="14.00" fill="#000000"> 2333259</text>
</a>
</g>
</g>
<!-- NN2_1 -->
<g id="NN2_1" class="node">
<title>NN2_1</title>
<g id="a_NN2_1"><a xlink:title="610668">
<polygon fill="#f8f8f8" stroke="#000000" points="496,-997 446,-997 442,-993 442,-961 492,-961 496,-965 496,-997"/>
<polyline fill="none" stroke="#000000" points="492,-993 442,-993 "/>
<polyline fill="none" stroke="#000000" points="492,-993 492,-961 "/>
<polyline fill="none" stroke="#000000" points="492,-993 496,-997 "/>
<text text-anchor="middle" x="469" y="-977.1" font-family="Times,serif" font-size="8.00" fill="#000000">40kB..64kB</text>
</a>
</g>
</g>
<!-- N2&#45;&gt;NN2_1 -->
<g id="edge2" class="edge">
<title>N2&#45;&gt;NN2_1</title>
<g id="a_edge2"><a xlink:title="610668">
<path fill="none" stroke="#000000" d="M503.5965,-1047.6825C499.4826,-1041.8641 495.5169,-1035.8864 492,-1030 487.6566,-1022.7302 483.6039,-1014.4967 480.1477,-1006.7991"/>
<polygon fill="#000000" stroke="#000000" points="483.2881,-1005.2426 476.1119,-997.4483 476.8612,-1008.0166 483.2881,-1005.2426"/>
</a>
</g>
<g id="a_edge2&#45;label"><a xlink:title="610668">
<text text-anchor="middle" x="514.5" y="-1018.8" font-family="Times,serif" font-size="14.00" fill="#000000"> 610668</text>
</a>
</g>
</g>
<!-- NN2_2 -->
<g id="NN2_2" class="node">
<title>NN2_2</title>
<g id="a_NN2_2"><a xlink:title="459004">
<polygon fill="#f8f8f8" stroke="#000000" points="568,-997 518,-997 514,-993 514,-961 564,-961 568,-965 568,-997"/>
<polyline fill="none" stroke="#000000" points="564,-993 514,-993 "/>
<polyline fill="none" stroke="#000000" points="564,-993 564,-961 "/>
<polyline fill="none" stroke="#000000" points="564,-993 568,-997 "/>
<text text-anchor="middle" x="541" y="-977.1" font-family="Times,serif" font-size="8.00" fill="#000000">72kB..88kB</text>
</a>
</g>
</g>
<!-- N2&#45;&gt;NN2_2 -->
<g id="edge3" class="edge">
<title>N2&#45;&gt;NN2_2</title>
<g id="a_edge3"><a xlink:title="459004">
<path fill="none" stroke="#000000" d="M541,-1047.8877C541,-1034.1618 541,-1019.5341 541,-1007.3046"/>
<polygon fill="#000000" stroke="#000000" points="544.5001,-1007.2578 541,-997.2578 537.5001,-1007.2579 544.5001,-1007.2578"/>
</a>
</g>
<g id="a_edge3&#45;label"><a xlink:title="459004">
<text text-anchor="middle" x="563.5" y="-1018.8" font-family="Times,serif" font-size="14.00" fill="#000000"> 459004</text>
</a>
</g>
</g>
<!-- NN2_3 -->
<g id="NN2_3" class="node">
<title>NN2_3</title>
<g id="a_NN2_3"><a xlink:title="455857">
<polygon fill="#f8f8f8" stroke="#000000" points="644,-997 590,-997 586,-993 586,-961 640,-961 644,-965 644,-997"/>
<polyline fill="none" stroke="#000000" points="640,-993 586,-993 "/>
<polyline fill="none" stroke="#000000" points="640,-993 640,-961 "/>
<polyline fill="none" stroke="#000000" points="640,-993 644,-997 "/>
<text text-anchor="middle" x="615" y="-977.1" font-family="Times,serif" font-size="8.00" fill="#000000">96kB..112kB</text>
</a>
</g>
</g>
<!-- N2&#45;&gt;NN2_3 -->
<g id="edge4" class="edge">
<title>N2&#45;&gt;NN2_3</title>
<g id="a_edge4"><a xlink:title="455857">
<path fill="none" stroke="#000000" d="M577.965,-1047.9252C582.2009,-1042.0142 586.3154,-1035.9481 590,-1030 594.5777,-1022.6101 598.9672,-1014.262 602.7554,-1006.4919"/>
<polygon fill="#000000" stroke="#000000" points="605.9417,-1007.9408 607.05,-997.4041 599.6129,-1004.95 605.9417,-1007.9408"/>
</a>
</g>
<g id="a_edge4&#45;label"><a xlink:title="455857">
<text text-anchor="middle" x="621.5" y="-1018.8" font-family="Times,serif" font-size="14.00" fill="#000000"> 455857</text>
</a>
</g>
</g>
<!-- N6 -->
<g id="node6" class="node">
<title>N6</title>
<g id="a_node6"><a xlink:title="fmt.Sprintf (21066541)">
<polygon fill="#edd6d5" stroke="#b20a00" points="762,-924 598,-924 598,-844 762,-844 762,-924"/>
<text text-anchor="middle" x="680" y="-907.2" font-family="Times,serif" font-size="16.00" fill="#000000">fmt</text>
<text text-anchor="middle" x="680" y="-889.2" font-family="Times,serif" font-size="16.00" fill="#000000">Sprintf</text>
<text text-anchor="middle" x="680" y="-871.2" font-family="Times,serif" font-size="16.00" fill="#000000">2138373 (8.34%)</text>
<text text-anchor="middle" x="680" y="-853.2" font-family="Times,serif" font-size="16.00" fill="#000000">of 21066541 (82.14%)</text>
</a>
</g>
</g>
<!-- N2&#45;&gt;N6 -->
<g id="edge14" class="edge">
<title>N2&#45;&gt;N6</title>
<g id="a_edge14"><a xlink:title="main.handle &#45;&gt; fmt.Sprintf (21066541)">
<path fill="none" stroke="#b20a00" stroke-width="5" d="M631.6703,-1047.8966C637.7612,-1042.4593 643.3221,-1036.5008 648,-1030 667.9302,-1002.3037 675.8288,-964.5391 678.7976,-934.357"/>
<polygon fill="#b20a00" stroke="#b20a00" stroke-width="5" points="683.1878,-934.3535 679.6538,-924.0263 674.4677,-933.6308 683.1878,-934.3535"/>
</a>
</g>
<g id="a_edge14&#45;label"><a xlink:title="main.handle &#45;&gt; fmt.Sprintf (21066541)">
<text text-anchor="middle" x="704" y="-975.3" font-family="Times,serif" font-size="14.00" fill="#000000"> 21066541</text>
</a>
</g>
</g>
<!-- N3 -->
<g id="node3" class="node">
<title>N3</title>
<g id="a_node3"><a xlink:title="reflect.packEface (10263260)">
<polygon fill="#eddbd5" stroke="#b22a00" points="851.5,-173 642.5,-173 642.5,-87 851.5,-87 851.5,-173"/>
<text text-anchor="middle" x="747" y="-149.8" font-family="Times,serif" font-size="24.00" fill="#000000">reflect</text>
<text text-anchor="middle" x="747" y="-123.8" font-family="Times,serif" font-size="24.00" fill="#000000">packEface</text>
<text text-anchor="middle" x="747" y="-97.8" font-family="Times,serif" font-size="24.00" fill="#000000">10263260 (40.02%)</text>
</a>
</g>
</g>
<!-- NN3_0 -->
<g id="NN3_0" class="node">
<title>NN3_0</title>
<g id="a_NN3_0"><a xlink:title="6094941">
<polygon fill="#f8f8f8" stroke="#000000" points="699,-36 649,-36 645,-32 645,0 695,0 699,-4 699,-36"/>
<polyline fill="none" stroke="#000000" points="695,-32 645,-32 "/>
<polyline fill="none" stroke="#000000" points="695,-32 695,0 "/>
<polyline fill="none" stroke="#000000" points="695,-32 699,-36 "/>
<text text-anchor="middle" x="672" y="-16.1" font-family="Times,serif" font-size="8.00" fill="#000000">16B</text>
</a>
</g>
</g>
<!-- N3&#45;&gt;NN3_0 -->
<g id="edge5" class="edge">
<title>N3&#45;&gt;NN3_0</title>
<g id="a_edge5"><a xlink:title="6094941">
<path fill="none" stroke="#000000" d="M703.8686,-86.9786C699.1795,-81.1914 694.755,-75.1293 691,-69 686.6271,-61.8621 683.0053,-53.5566 680.1385,-45.7466"/>
<polygon fill="#000000" stroke="#000000" points="683.4412,-44.5873 676.9113,-36.244 676.813,-46.8384 683.4412,-44.5873"/>
</a>
</g>
<g id="a_edge5&#45;label"><a xlink:title="6094941">
<text text-anchor="middle" x="717" y="-57.8" font-family="Times,serif" font-size="14.00" fill="#000000"> 6094941</text>
</a>
</g>
</g>
<!-- NN3_1 -->
<g id="NN3_1" class="node">
<title>NN3_1</title>
<g id="a_NN3_1"><a xlink:title="2234948">
<polygon fill="#f8f8f8" stroke="#000000" points="774,-36 724,-36 720,-32 720,0 770,0 774,-4 774,-36"/>
<polyline fill="none" stroke="#000000" points="770,-32 720,-32 "/>
<polyline fill="none" stroke="#000000" points="770,-32 770,0 "/>
<polyline fill="none" stroke="#000000" points="770,-32 774,-36 "/>
<text text-anchor="middle" x="747" y="-16.1" font-family="Times,serif" font-size="8.00" fill="#000000">80B</text>
</a>
</g>
</g>
<!-- N3&#45;&gt;NN3_1 -->
<g id="edge6" class="edge">
<title>N3&#45;&gt;NN3_1</title>
<g id="a_edge6"><a xlink:title="2234948">
<path fill="none" stroke="#000000" d="M747,-86.6979C747,-73.0814 747,-58.4077 747,-46.1319"/>
<polygon fill="#000000" stroke="#000000" points="750.5001,-46.0482 747,-36.0482 743.5001,-46.0482 750.5001,-46.0482"/>
</a>
</g>
<g id="a_edge6&#45;label"><a xlink:title="2234948">
<text text-anchor="middle" x="773" y="-57.8" font-family="Times,serif" font-size="14.00" fill="#000000"> 2234948</text>
</a>
</g>
</g>
<!-- NN3_2 -->
<g id="NN3_2" class="node">
<title>NN3_2</title>
<g id="a_NN3_2"><a xlink:title="1933371">
<polygon fill="#f8f8f8" stroke="#000000" points="849,-36 799,-36 795,-32 795,0 845,0 849,-4 849,-36"/>
<polyline fill="none" stroke="#000000" points="845,-32 795,-32 "/>
<polyline fill="none" stroke="#000000" points="845,-32 845,0 "/>
<polyline fill="none" stroke="#000000" points="845,-32 849,-36 "/>
<text text-anchor="middle" x="822" y="-16.1" font-family="Times,serif" font-size="8.00" fill="#000000">32B</text>
</a>
</g>
</g>
<!-- N3&#45;&gt;NN3_2 -->
<g id="edge7" class="edge">
<title>N3&#45;&gt;NN3_2</title>
<g id="a_edge7"><a xlink:title="1933371">
<path fill="none" stroke="#000000" d="M787.2012,-86.9507C791.7971,-81.1218 796.1916,-75.0571 800,-69 804.5473,-61.7678 808.582,-53.4334 811.9144,-45.6257"/>
<polygon fill="#000000" stroke="#000000" points="815.2457,-46.7234 815.7454,-36.1403 808.7551,-44.1019 815.2457,-46.7234"/>
</a>
</g>
<g id="a_edge7&#45;label"><a xlink:title="1933371">
<text text-anchor="middle" x="835" y="-57.8" font-family="Times,serif" font-size="14.00" fill="#000000"> 1933371</text>
</a>
</g>
</g>
<!-- N4 -->
<g id="node4" class="node">
<title>N4</title>
<g id="a_node4"><a xlink:title="fmt.(*pp).printValue (18848618)">
<polygon fill="#edd7d5" stroke="#b20f00" points="794,-530 700,-530 700,-486 794,-486 794,-530"/>
<text text-anchor="middle" x="747" y="-519.6" font-family="Times,serif" font-size="8.00" fill="#000000">fmt</text>
<text text-anchor="middle" x="747" y="-510.6" font-family="Times,serif" font-size="8.00" fill="#000000">(*pp)</text>
<text text-anchor="middle" x="747" y="-501.6" font-family="Times,serif" font-size="8.00" fill="#000000">printValue</text>
<text text-anchor="middle" x="747" y="-492.6" font-family="Times,serif" font-size="8.00" fill="#000000">0 of 18848618 (73.49%)</text>
</a>
</g>
</g>
<!-- N7 -->
<g id="node7" class="node">
<title>N7</title>
<g id="a_node7"><a xlink:title="fmt.(*buffer).WriteString (147467)">
<polygon fill="#ededec" stroke="#b2b1ad" points="573.5,-435 490.5,-435 490.5,-383 573.5,-383 573.5,-435"/>
<text text-anchor="middle" x="532" y="-423" font-family="Times,serif" font-size="10.00" fill="#000000">fmt</text>
<text text-anchor="middle" x="532" y="-412" font-family="Times,serif" font-size="10.00" fill="#000000">(*buffer)</text>
<text text-anchor="middle" x="532" y="-401" font-family="Times,serif" font-size="10.00" fill="#000000">WriteString</text>
<text text-anchor="middle" x="532" y="-390" font-family="Times,serif" font-size="10.00" fill="#000000">147467 (0.57%)</text>
</a>
</g>
</g>
<!-- N4&#45;&gt;N7 -->
<g id="edge23" class="edge">
<title>N4&#45;&gt;N7</title>
<g id="a_edge23"><a xlink:title="fmt.(*pp).printValue &#45;&gt; fmt.(*buffer).WriteString (147467)">
<path fill="none" stroke="#b2b1ad" d="M699.9905,-494.8988C677.7092,-488.0126 650.9985,-478.7619 628,-468 611.4109,-460.2373 594.1155,-450.2611 578.8493,-440.7289"/>
<polygon fill="#b2b1ad" stroke="#b2b1ad" points="580.4349,-437.5899 570.1159,-435.1878 576.6847,-443.5006 580.4349,-437.5899"/>
</a>
</g>
<g id="a_edge23&#45;label"><a xlink:title="fmt.(*pp).printValue &#45;&gt; fmt.(*buffer).WriteString (147467)">
<text text-anchor="middle" x="650.5" y="-456.8" font-family="Times,serif" font-size="14.00" fill="#000000"> 147467</text>
</a>
</g>
</g>
<!-- N13 -->
<g id="node13" class="node">
<title>N13</title>
<g id="a_node13"><a xlink:title="reflect.(*rtype).Field (8290430)">
<polygon fill="#eddcd5" stroke="#b23300" points="682,-431 592,-431 592,-387 682,-387 682,-431"/>
<text text-anchor="middle" x="637" y="-420.6" font-family="Times,serif" font-size="8.00" fill="#000000">reflect</text>
<text text-anchor="middle" x="637" y="-411.6" font-family="Times,serif" font-size="8.00" fill="#000000">(*rtype)</text>
<text text-anchor="middle" x="637" y="-402.6" font-family="Times,serif" font-size="8.00" fill="#000000">Field</text>
<text text-anchor="middle" x="637" y="-393.6" font-family="Times,serif" font-size="8.00" fill="#000000">0 of 8290430 (32.33%)</text>
</a>
</g>
</g>
<!-- N4&#45;&gt;N13 -->
<g id="edge21" class="edge">
<title>N4&#45;&gt;N13</title>
<g id="a_edge21"><a xlink:title="fmt.(*pp).printValue &#45;&gt; reflect.(*rtype).Field (8290430)">
<path fill="none" stroke="#b23300" stroke-width="2" d="M713.5458,-485.8398C705.8995,-480.3066 697.9758,-474.1794 691,-468 680.9121,-459.0638 670.7118,-448.4232 661.9341,-438.655"/>
<polygon fill="#b23300" stroke="#b23300" stroke-width="2" points="664.4702,-436.2391 655.229,-431.0573 659.2218,-440.871 664.4702,-436.2391"/>
</a>
</g>
<g id="a_edge21&#45;label"><a xlink:title="fmt.(*pp).printValue &#45;&gt; reflect.(*rtype).Field (8290430)">
<text text-anchor="middle" x="717" y="-456.8" font-family="Times,serif" font-size="14.00" fill="#000000"> 8290430</text>
</a>
</g>
</g>
<!-- N14 -->
<g id="node14" class="node">
<title>N14</title>
<g id="a_node14"><a xlink:title="reflect.Value.Interface (10263260)">
<polygon fill="#eddbd5" stroke="#b22a00" points="794,-431 700,-431 700,-387 794,-387 794,-431"/>
<text text-anchor="middle" x="747" y="-420.6" font-family="Times,serif" font-size="8.00" fill="#000000">reflect</text>
<text text-anchor="middle" x="747" y="-411.6" font-family="Times,serif" font-size="8.00" fill="#000000">Value</text>
<text text-anchor="middle" x="747" y="-402.6" font-family="Times,serif" font-size="8.00" fill="#000000">Interface</text>
<text text-anchor="middle" x="747" y="-393.6" font-family="Times,serif" font-size="8.00" fill="#000000">0 of 10263260 (40.02%)</text>
</a>
</g>
</g>
<!-- N4&#45;&gt;N14 -->
<g id="edge18" class="edge">
<title>N4&#45;&gt;N14</title>
<g id="a_edge18"><a xlink:title="fmt.(*pp).printValue &#45;&gt; reflect.Value.Interface (10263260)">
<path fill="none" stroke="#b22a00" stroke-width="3" d="M747,-485.5354C747,-472.406 747,-455.6163 747,-441.1095"/>
<polygon fill="#b22a00" stroke="#b22a00" stroke-width="3" points="750.5001,-441.0347 747,-431.0347 743.5001,-441.0347 750.5001,-441.0347"/>
</a>
</g>
<g id="a_edge18&#45;label"><a xlink:title="fmt.(*pp).printValue &#45;&gt; reflect.Value.Interface (10263260)">
<text text-anchor="middle" x="776" y="-456.8" font-family="Times,serif" font-size="14.00" fill="#000000"> 10263260</text>
</a>
</g>
</g>
<!-- N5 -->
<g id="node5" class="node">
<title>N5</title>
<g id="a_node5"><a xlink:title="reflect.(*structType).Field (8290430)">
<polygon fill="#eddcd5" stroke="#b23300" points="681.5,-332 494.5,-332 494.5,-224 681.5,-224 681.5,-332"/>
<text text-anchor="middle" x="588" y="-309.6" font-family="Times,serif" font-size="23.00" fill="#000000">reflect</text>
<text text-anchor="middle" x="588" y="-284.6" font-family="Times,serif" font-size="23.00" fill="#000000">(*structType)</text>
<text text-anchor="middle" x="588" y="-259.6" font-family="Times,serif" font-size="23.00" fill="#000000">Field</text>
<text text-anchor="middle" x="588" y="-234.6" font-family="Times,serif" font-size="23.00" fill="#000000">8290430 (32.33%)</text>
</a>
</g>
</g>
<!-- NN5_0 -->
<g id="NN5_0" class="node">
<title>NN5_0</title>
<g id="a_NN5_0"><a xlink:title="8290430">
<polygon fill="#f8f8f8" stroke="#000000" points="615,-148 565,-148 561,-144 561,-112 611,-112 615,-116 615,-148"/>
<polyline fill="none" stroke="#000000" points="611,-144 561,-144 "/>
<polyline fill="none" stroke="#000000" points="611,-144 611,-112 "/>
<polyline fill="none" stroke="#000000" points="611,-144 615,-148 "/>
<text text-anchor="middle" x="588" y="-128.1" font-family="Times,serif" font-size="8.00" fill="#000000">16B</text>
</a>
</g>
</g>
<!-- N5&#45;&gt;NN5_0 -->
<g id="edge8" class="edge">
<title>N5&#45;&gt;NN5_0</title>
<g id="a_edge8"><a xlink:title="8290430">
<path fill="none" stroke="#000000" d="M588,-223.7307C588,-201.5244 588,-176.761 588,-158.2666"/>
<polygon fill="#000000" stroke="#000000" points="591.5001,-158.1685 588,-148.1686 584.5001,-158.1686 591.5001,-158.1685"/>
</a>
</g>
<g id="a_edge8&#45;label"><a xlink:title="8290430">
<text text-anchor="middle" x="614" y="-194.8" font-family="Times,serif" font-size="14.00" fill="#000000"> 8290430</text>
</a>
</g>
</g>
<!-- NN6_0 -->
<g id="NN6_0" class="node">
<title>NN6_0</title>
<g id="a_NN6_0"><a xlink:title="2138373">
<polygon fill="#f8f8f8" stroke="#000000" points="707,-793 657,-793 653,-789 653,-757 703,-757 707,-761 707,-793"/>
<polyline fill="none" stroke="#000000" points="703,-789 653,-789 "/>
<polyline fill="none" stroke="#000000" points="703,-789 703,-757 "/>
<polyline fill="none" stroke="#000000" points="703,-789 707,-793 "/>
<text text-anchor="middle" x="680" y="-773.1" font-family="Times,serif" font-size="8.00" fill="#000000">128B</text>
</a>
</g>
</g>
<!-- N6&#45;&gt;NN6_0 -->
<g id="edge9" class="edge">
<title>N6&#45;&gt;NN6_0</title>
<g id="a_edge9"><a xlink:title="2138373">
<path fill="none" stroke="#000000" d="M680,-843.7221C680,-830.3073 680,-815.6565 680,-803.3416"/>
<polygon fill="#000000" stroke="#000000" points="683.5001,-803.2105 680,-793.2106 676.5001,-803.2106 683.5001,-803.2105"/>
</a>
</g>
<g id="a_edge9&#45;label"><a xlink:title="2138373">
<text text-anchor="middle" x="706" y="-814.8" font-family="Times,serif" font-size="14.00" fill="#000000"> 2138373</text>
</a>
</g>
</g>
<!-- N8 -->
<g id="node8" class="node">
<title>N8</title>
<g id="a_node8"><a xlink:title="fmt.(*pp).doPrintf (18848618)">
<polygon fill="#edd7d5" stroke="#b20f00" points="794,-720 700,-720 700,-676 794,-676 794,-720"/>
<text text-anchor="middle" x="747" y="-709.6" font-family="Times,serif" font-size="8.00" fill="#000000">fmt</text>
<text text-anchor="middle" x="747" y="-700.6" font-family="Times,serif" font-size="8.00" fill="#000000">(*pp)</text>
<text text-anchor="middle" x="747" y="-691.6" font-family="Times,serif" font-size="8.00" fill="#000000">doPrintf</text>
<text text-anchor="middle" x="747" y="-682.6" font-family="Times,serif" font-size="8.00" fill="#000000">0 of 18848618 (73.49%)</text>
</a>
</g>
</g>
<!-- N6&#45;&gt;N8 -->
<g id="edge17" class="edge">
<title>N6&#45;&gt;N8</title>
<g id="a_edge17"><a xlink:title="fmt.Sprintf &#45;&gt; fmt.(*pp).doPrintf (18848618)">
<path fill="none" stroke="#b20f00" stroke-width="4" d="M722.2658,-843.8452C726.4559,-838.2138 730.19,-832.2144 733,-826 746.7416,-795.6102 749.2212,-757.1673 748.8984,-730.3798"/>
<polygon fill="#b20f00" stroke="#b20f00" stroke-width="4" points="752.3971,-730.2813 748.6415,-720.3744 745.3994,-730.461 752.3971,-730.2813"/>
</a>
</g>
<g id="a_edge17&#45;label"><a xlink:title="fmt.Sprintf &#45;&gt; fmt.(*pp).doPrintf (18848618)">
<text text-anchor="middle" x="778" y="-771.3" font-family="Times,serif" font-size="14.00" fill="#000000"> 18848618</text>
</a>
</g>
</g>
<!-- N9 -->
<g id="node9" class="node">
<title>N9</title>
<g id="a_node9"><a xlink:title="fmt.(*pp).printArg (18848618)">
<polygon fill="#edd7d5" stroke="#b20f00" points="794,-625 700,-625 700,-581 794,-581 794,-625"/>
<text text-anchor="middle" x="747" y="-614.6" font-family="Times,serif" font-size="8.00" fill="#000000">fmt</text>
<text text-anchor="middle" x="747" y="-605.6" font-family="Times,serif" font-size="8.00" fill="#000000">(*pp)</text>
<text text-anchor="middle" x="747" y="-596.6" font-family="Times,serif" font-size="8.00" fill="#000000">printArg</text>
<text text-anchor="middle" x="747" y="-587.6" font-family="Times,serif" font-size="8.00" fill="#000000">0 of 18848618 (73.49%)</text>
</a>
</g>
</g>
<!-- N8&#45;&gt;N9 -->
<g id="edge15" class="edge">
<title>N8&#45;&gt;N9</title>
<g id="a_edge15"><a xlink:title="fmt.(*pp).doPrintf &#45;&gt; fmt.(*pp).printArg (18848618)">
<path fill="none" stroke="#b20f00" stroke-width="4" d="M747,-675.9663C747,-663.9427 747,-648.8283 747,-635.4785"/>
<polygon fill="#b20f00" stroke="#b20f00" stroke-width="4" points="750.5001,-635.2433 747,-625.2433 743.5001,-635.2433 750.5001,-635.2433"/>
</a>
</g>
<g id="a_edge15&#45;label"><a xlink:title="fmt.(*pp).doPrintf &#45;&gt; fmt.(*pp).printArg (18848618)">
<text text-anchor="middle" x="776" y="-646.8" font-family="Times,serif" font-size="14.00" fill="#000000"> 18848618</text>
</a>
</g>
</g>
<!-- N9&#45;&gt;N4 -->
<g id="edge16" class="edge">
<title>N9&#45;&gt;N4</title>
<g id="a_edge16"><a xlink:title="fmt.(*pp).printArg &#45;&gt; fmt.(*pp).printValue (18848618)">
<path fill="none" stroke="#b20f00" stroke-width="4" d="M747,-580.9663C747,-568.9427 747,-553.8283 747,-540.4785"/>
<polygon fill="#b20f00" stroke="#b20f00" stroke-width="4" points="750.5001,-540.2433 747,-530.2433 743.5001,-540.2433 750.5001,-540.2433"/>
</a>
</g>
<g id="a_edge16&#45;label"><a xlink:title="fmt.(*pp).printArg &#45;&gt; fmt.(*pp).printValue (18848618)">
<text text-anchor="middle" x="776" y="-551.8" font-family="Times,serif" font-size="14.00" fill="#000000"> 18848618</text>
</a>
</g>
</g>
<!-- N10 -->
<g id="node10" class="node">
<title>N10</title>
<g id="a_node10"><a xlink:title="net/http.(*ServeMux).ServeHTTP (25599836)">
<polygon fill="#edd5d5" stroke="#b20000" points="588,-1330 494,-1330 494,-1286 588,-1286 588,-1330"/>
<text text-anchor="middle" x="541" y="-1319.6" font-family="Times,serif" font-size="8.00" fill="#000000">http</text>
<text text-anchor="middle" x="541" y="-1310.6" font-family="Times,serif" font-size="8.00" fill="#000000">(*ServeMux)</text>
<text text-anchor="middle" x="541" y="-1301.6" font-family="Times,serif" font-size="8.00" fill="#000000">ServeHTTP</text>
<text text-anchor="middle" x="541" y="-1292.6" font-family="Times,serif" font-size="8.00" fill="#000000">0 of 25599836 (99.82%)</text>
</a>
</g>
</g>
<!-- N11 -->
<g id="node11" class="node">
<title>N11</title>
<g id="a_node11"><a xlink:title="net/http.HandlerFunc.ServeHTTP (25599836)">
<polygon fill="#edd5d5" stroke="#b20000" points="588,-1235 494,-1235 494,-1191 588,-1191 588,-1235"/>
<text text-anchor="middle" x="541" y="-1224.6" font-family="Times,serif" font-size="8.00" fill="#000000">http</text>
<text text-anchor="middle" x="541" y="-1215.6" font-family="Times,serif" font-size="8.00" fill="#000000">HandlerFunc</text>
<text text-anchor="middle" x="541" y="-1206.6" font-family="Times,serif" font-size="8.00" fill="#000000">ServeHTTP</text>
<text text-anchor="middle" x="541" y="-1197.6" font-family="Times,serif" font-size="8.00" fill="#000000">0 of 25599836 (99.82%)</text>
</a>
</g>
</g>
<!-- N10&#45;&gt;N11 -->
<g id="edge10" class="edge">
<title>N10&#45;&gt;N11</title>
<g id="a_edge10"><a xlink:title="net/http.(*ServeMux).ServeHTTP &#45;&gt; net/http.HandlerFunc.ServeHTTP (25599836)">
<path fill="none" stroke="#b20000" stroke-width="5" d="M541,-1285.9663C541,-1273.9427 541,-1258.8283 541,-1245.4785"/>
<polygon fill="#b20000" stroke="#b20000" stroke-width="5" points="545.3751,-1245.2432 541,-1235.2433 536.6251,-1245.2433 545.3751,-1245.2432"/>
</a>
</g>
<g id="a_edge10&#45;label"><a xlink:title="net/http.(*ServeMux).ServeHTTP &#45;&gt; net/http.HandlerFunc.ServeHTTP (25599836)">
<text text-anchor="middle" x="570" y="-1256.8" font-family="Times,serif" font-size="14.00" fill="#000000"> 25599836</text>
</a>
</g>
</g>
<!-- N11&#45;&gt;N2 -->
<g id="edge13" class="edge">
<title>N11&#45;&gt;N2</title>
<g id="a_edge13"><a xlink:title="net/http.HandlerFunc.ServeHTTP &#45;&gt; main.handle (25599832)">
<path fill="none" stroke="#b20000" stroke-width="5" d="M541,-1190.8959C541,-1179.4295 541,-1164.8471 541,-1150.4981"/>
<polygon fill="#b20000" stroke="#b20000" stroke-width="5" points="545.3751,-1150.1389 541,-1140.1389 536.6251,-1150.1389 545.3751,-1150.1389"/>
</a>
</g>
<g id="a_edge13&#45;label"><a xlink:title="net/http.HandlerFunc.ServeHTTP &#45;&gt; main.handle (25599832)">
<text text-anchor="middle" x="570" y="-1161.8" font-family="Times,serif" font-size="14.00" fill="#000000"> 25599832</text>
</a>
</g>
</g>
<!-- N12&#45;&gt;N10 -->
<g id="edge12" class="edge">
<title>N12&#45;&gt;N10</title>
<g id="a_edge12"><a xlink:title="net/http.serverHandler.ServeHTTP &#45;&gt; net/http.(*ServeMux).ServeHTTP (25599836)">
<path fill="none" stroke="#b20000" stroke-width="5" d="M541,-1380.9663C541,-1368.9427 541,-1353.8283 541,-1340.4785"/>
<polygon fill="#b20000" stroke="#b20000" stroke-width="5" points="545.3751,-1340.2432 541,-1330.2433 536.6251,-1340.2433 545.3751,-1340.2432"/>
</a>
</g>
<g id="a_edge12&#45;label"><a xlink:title="net/http.serverHandler.ServeHTTP &#45;&gt; net/http.(*ServeMux).ServeHTTP (25599836)">
<text text-anchor="middle" x="570" y="-1351.8" font-family="Times,serif" font-size="14.00" fill="#000000"> 25599836</text>
</a>
</g>
</g>
<!-- N13&#45;&gt;N5 -->
<g id="edge22" class="edge">
<title>N13&#45;&gt;N5</title>
<g id="a_edge22"><a xlink:title="reflect.(*rtype).Field &#45;&gt; reflect.(*structType).Field (8290430)">
<path fill="none" stroke="#b23300" stroke-width="2" d="M628.6878,-386.7776C623.9859,-374.2072 617.8442,-357.7875 611.763,-341.5298"/>
<polygon fill="#b23300" stroke="#b23300" stroke-width="2" points="614.9826,-340.1465 608.2009,-332.0065 608.4262,-342.599 614.9826,-340.1465"/>
</a>
</g>
<g id="a_edge22&#45;label"><a xlink:title="reflect.(*rtype).Field &#45;&gt; reflect.(*structType).Field (8290430)">
<text text-anchor="middle" x="646" y="-353.8" font-family="Times,serif" font-size="14.00" fill="#000000"> 8290430</text>
</a>
</g>
</g>
<!-- N15 -->
<g id="node15" class="node">
<title>N15</title>
<g id="a_node15"><a xlink:title="reflect.valueInterface (10263260)">
<polygon fill="#eddbd5" stroke="#b22a00" points="794,-296 700,-296 700,-260 794,-260 794,-296"/>
<text text-anchor="middle" x="747" y="-285.1" font-family="Times,serif" font-size="8.00" fill="#000000">reflect</text>
<text text-anchor="middle" x="747" y="-276.1" font-family="Times,serif" font-size="8.00" fill="#000000">valueInterface</text>
<text text-anchor="middle" x="747" y="-267.1" font-family="Times,serif" font-size="8.00" fill="#000000">0 of 10263260 (40.02%)</text>
</a>
</g>
</g>
<!-- N14&#45;&gt;N15 -->
<g id="edge19" class="edge">
<title>N14&#45;&gt;N15</title>
<g id="a_edge19"><a xlink:title="reflect.Value.Interface &#45;&gt; reflect.valueInterface (10263260)">
<path fill="none" stroke="#b22a00" stroke-width="3" d="M747,-386.7776C747,-364.6217 747,-330.5077 747,-306.3993"/>
<polygon fill="#b22a00" stroke="#b22a00" stroke-width="3" points="750.5001,-306.1053 747,-296.1054 743.5001,-306.1054 750.5001,-306.1053"/>
</a>
</g>
<g id="a_edge19&#45;label"><a xlink:title="reflect.Value.Interface &#45;&gt; reflect.valueInterface (10263260)">
<text text-anchor="middle" x="776" y="-353.8" font-family="Times,serif" font-size="14.00" fill="#000000"> 10263260</text>
</a>
</g>
</g>
<!-- N15&#45;&gt;N3 -->
<g id="edge20" class="edge">
<title>N15&#45;&gt;N3</title>
<g id="a_edge20"><a xlink:title="reflect.valueInterface &#45;&gt; reflect.packEface (10263260)">
<path fill="none" stroke="#b22a00" stroke-width="3" d="M747,-259.8523C747,-240.8248 747,-210.019 747,-183.1871"/>
<polygon fill="#b22a00" stroke="#b22a00" stroke-width="3" points="750.5001,-183.1309 747,-173.1309 743.5001,-183.1309 750.5001,-183.1309"/>
</a>
</g>
<g id="a_edge20&#45;label"><a xlink:title="reflect.valueInterface &#45;&gt; reflect.packEface (10263260)">
<text text-anchor="middle" x="776" y="-194.8" font-family="Times,serif" font-size="14.00" fill="#000000"> 10263260</text>
</a>
</g>
</g>
</g>
</g></svg>
